<svg xmlns="http://www.w3.org/2000/svg" width="39" height="39" viewBox="0 0 39 39">
  <g id="Group_19" data-name="Group 19" transform="translate(-831 -612)">
    <circle id="Ellipse_46" data-name="Ellipse 46" cx="19.5" cy="19.5" r="19.5" transform="translate(831 612)"/>
    <path id="FontAwsome_apple_" data-name="FontAwsome (apple)" d="M16.038,41.054a3.571,3.571,0,0,1,1.913-3.244,4.11,4.11,0,0,0-3.24-1.706c-1.358-.107-2.842.792-3.385.792-.574,0-1.89-.754-2.922-.754-2.134.034-4.4,1.7-4.4,5.1a9.534,9.534,0,0,0,.551,3.106c.49,1.4,2.257,4.847,4.1,4.789.964-.023,1.645-.685,2.9-.685,1.216,0,1.848.685,2.922.685,1.859-.027,3.458-3.156,3.925-4.564a3.792,3.792,0,0,1-2.36-3.515Zm-2.165-6.281A3.6,3.6,0,0,0,14.791,32a4.056,4.056,0,0,0-2.6,1.335,3.659,3.659,0,0,0-.979,2.75A3.213,3.213,0,0,0,13.873,34.773Z" transform="translate(838.301 590.366)" fill="#fff"/>
  </g>
</svg>
