<svg xmlns="http://www.w3.org/2000/svg" width="23.586" height="18.345" viewBox="0 0 23.586 18.345">
  <g id="Group_19" data-name="Group 19" transform="translate(-878 -347.655)">
    <path id="FontAwsome_cc-visa_" data-name="FontAwsome (cc-visa)" d="M19.25,40.161s.311,1.523.381,1.843H18.263c.135-.364.655-1.781.655-1.781s.135-.373.217-.61l.115.549Zm4.336-6.2V48.379a1.966,1.966,0,0,1-1.966,1.966H1.966A1.966,1.966,0,0,1,0,48.379V33.966A1.966,1.966,0,0,1,1.966,32H21.621A1.966,1.966,0,0,1,23.586,33.966ZM6.245,44.252,8.833,37.9H7.092L5.483,42.237l-.176-.88-.573-2.924a.685.685,0,0,0-.745-.536H1.339l-.029.127a6.5,6.5,0,0,1,1.728.7L4.5,44.252Zm3.866.008L11.142,37.9H9.5L8.468,44.26H10.11Zm5.729-2.08c.008-.725-.434-1.278-1.38-1.732-.577-.291-.93-.487-.93-.786.008-.27.3-.549.946-.549a2.822,2.822,0,0,1,1.224.242l.147.07.225-1.376a4.089,4.089,0,0,0-1.474-.27c-1.626,0-2.768.868-2.776,2.1-.012.913.819,1.421,1.441,1.728s.852.516.852.79c-.008.426-.516.622-.987.622a3.28,3.28,0,0,1-1.544-.34l-.217-.1-.229,1.429a5.024,5.024,0,0,0,1.834.34c1.728,0,2.854-.852,2.866-2.17Zm5.782,2.08L20.294,37.9H19.021a.81.81,0,0,0-.86.528L15.716,44.26h1.728s.283-.786.344-.954H19.9c.049.225.2.954.2.954Z" transform="translate(878 315.655)"/>
  </g>
</svg>
