<svg xmlns="http://www.w3.org/2000/svg" width="23.143" height="18" viewBox="0 0 23.143 18">
  <path id="FontAwsome_credit-card_" data-name="FontAwsome (credit-card)" d="M21.21,32H1.933A1.93,1.93,0,0,0,0,33.929V48.071A1.93,1.93,0,0,0,1.933,50H21.21a1.93,1.93,0,0,0,1.933-1.929V33.929A1.93,1.93,0,0,0,21.21,32ZM2.174,33.929h18.8a.242.242,0,0,1,.241.241v1.688H1.933V34.17A.242.242,0,0,1,2.174,33.929Zm18.8,14.143H2.174a.242.242,0,0,1-.241-.241V41H21.21v6.83A.242.242,0,0,1,20.969,48.071ZM7.714,44.054v1.607a.484.484,0,0,1-.482.482H4.339a.484.484,0,0,1-.482-.482V44.054a.484.484,0,0,1,.482-.482H7.232A.484.484,0,0,1,7.714,44.054Zm7.714,0v1.607a.484.484,0,0,1-.482.482H9.482A.484.484,0,0,1,9,45.661V44.054a.484.484,0,0,1,.482-.482h5.464A.484.484,0,0,1,15.429,44.054Z" transform="translate(0 -32)"/>
</svg>
