<svg xmlns="http://www.w3.org/2000/svg" width="29.16" height="22.68" viewBox="0 0 29.16 22.68">
  <path id="FontAwsome_address-card_" data-name="FontAwsome (address-card)" d="M26.73,32H2.43A2.431,2.431,0,0,0,0,34.43V52.25a2.431,2.431,0,0,0,2.43,2.43h24.3a2.431,2.431,0,0,0,2.43-2.43V34.43A2.431,2.431,0,0,0,26.73,32Zm0,20.25H2.43V34.43h24.3Zm-16.2-8.91A3.24,3.24,0,1,0,7.29,40.1,3.243,3.243,0,0,0,10.53,43.34ZM5.994,49.82h9.072a1.062,1.062,0,0,0,1.134-.972v-.972a3.188,3.188,0,0,0-3.4-2.916,12.223,12.223,0,0,1-2.268.405,12.045,12.045,0,0,1-2.268-.405,3.188,3.188,0,0,0-3.4,2.916v.972A1.062,1.062,0,0,0,5.994,49.82Zm12.231-3.24H23.9a.406.406,0,0,0,.405-.4v-.81a.406.406,0,0,0-.405-.405h-5.67a.406.406,0,0,0-.405.405v.81A.406.406,0,0,0,18.225,46.58Zm0-3.24H23.9a.406.406,0,0,0,.405-.405v-.81a.406.406,0,0,0-.405-.405h-5.67a.406.406,0,0,0-.405.405v.81A.406.406,0,0,0,18.225,43.34Zm0-3.24H23.9A.406.406,0,0,0,24.3,39.7v-.81a.406.406,0,0,0-.405-.405h-5.67a.406.406,0,0,0-.405.405v.81A.406.406,0,0,0,18.225,40.1Z" transform="translate(0 -32)"/>
</svg>
