<svg xmlns="http://www.w3.org/2000/svg" width="24.252" height="18.189" viewBox="0 0 24.252 18.189">
  <path id="FontAwsome_envelope_" data-name="FontAwsome (envelope)" d="M21.979,64H2.274A2.274,2.274,0,0,0,0,66.274V79.915a2.274,2.274,0,0,0,2.274,2.274h19.7a2.274,2.274,0,0,0,2.274-2.274V66.274A2.274,2.274,0,0,0,21.979,64Zm0,2.274v1.933c-1.062.865-2.755,2.21-6.375,5.044-.8.627-2.378,2.135-3.477,2.117-1.1.018-2.68-1.49-3.477-2.117-3.619-2.834-5.313-4.179-6.375-5.044V66.274ZM2.274,79.915V71.124c1.085.865,2.625,2.078,4.971,3.915,1.035.815,2.848,2.614,4.882,2.6,2.023.011,3.814-1.762,4.881-2.6,2.346-1.837,3.886-3.051,4.971-3.915v8.791Z" transform="translate(0 -64)"/>
</svg>
