<svg id="Group_2" data-name="Group 2" xmlns="http://www.w3.org/2000/svg" width="130.925" height="33.449" viewBox="0 0 130.925 33.449">
  <path id="Path_1" data-name="Path 1" d="M122.389,219.523h-2.336a3.539,3.539,0,0,1-3.486-2.932l-3.215-18.451a2.138,2.138,0,0,1,2.106-2.506h3.255a2.061,2.061,0,0,1,2.033,1.728l1.935,11.851,6.678-12.267a2.514,2.514,0,0,1,2.207-1.311h2.456a2.327,2.327,0,0,1,2.026,3.472l-10.495,18.571A3.633,3.633,0,0,1,122.389,219.523Z" transform="translate(-113.318 -186.463)"/>
  <path id="Path_2" data-name="Path 2" d="M143.045,198.8l-3.252,18.486a2.7,2.7,0,0,1-2.66,2.233H135.07a2.7,2.7,0,0,1-2.66-3.168l3.12-17.736a3.608,3.608,0,0,1,3.553-2.984h1.3A2.7,2.7,0,0,1,143.045,198.8Z" transform="translate(-109.948 -186.463)"/>
  <path id="Path_3" data-name="Path 3" d="M151.087,212.676H150.6a.983.983,0,0,0-.967.811l-.73,4.146a2.288,2.288,0,0,1-2.253,1.89H143.3a1.822,1.822,0,0,1-1.795-2.137l3.229-18.359a4.1,4.1,0,0,1,4.042-3.392H156.5a8.091,8.091,0,0,1,5.7,1.984,6.983,6.983,0,0,1,2.16,5.408,9.156,9.156,0,0,1-1.478,5.233,9.472,9.472,0,0,1-3.164,2.946.974.974,0,0,0-.384,1.275l2.23,4.528A1.745,1.745,0,0,1,160,219.523h-3.559a2.458,2.458,0,0,1-2.231-1.43l-2.23-4.847A.981.981,0,0,0,151.087,212.676Zm.467-10.3-.658,3.737a.55.55,0,0,0,.541.646h2.535a3.239,3.239,0,0,0,2.315-.759,2.739,2.739,0,0,0,.8-2.082q0-2.021-2.412-2.022h-2.546A.581.581,0,0,0,151.554,202.38Z" transform="translate(-108.335 -186.463)"/>
  <path id="Path_4" data-name="Path 4" d="M178.672,207.268a4.665,4.665,0,0,1,3,4.669,6.793,6.793,0,0,1-2.509,5.5,9.925,9.925,0,0,1-6.556,2.082h-9.68a1.965,1.965,0,0,1-1.935-2.306l3.344-19.015a3.106,3.106,0,0,1,3.059-2.568h8.753a7.809,7.809,0,0,1,5,1.421,5,5,0,0,1,1.77,4.143,6.416,6.416,0,0,1-4.24,6.07Zm-9.418,3.361-.431,2.388a.337.337,0,0,0,.332.4h3.253a2.37,2.37,0,0,0,1.576-.506,1.686,1.686,0,0,0,.6-1.362q0-1.361-1.595-1.362h-3.207A.541.541,0,0,0,169.254,210.629Zm1.1-6.332a.411.411,0,0,0,.4.481h2.662q2.219,0,2.219-1.829,0-1.244-1.674-1.245h-2.6a.655.655,0,0,0-.645.54Z" transform="translate(-104.889 -186.463)"/>
  <path id="Path_5" data-name="Path 5" d="M194.934,195.635H207.8a2.257,2.257,0,0,1,2.222,2.648l-.4,2.279a1.807,1.807,0,0,1-1.779,1.494h-9.026l-.428,2.256h7.232a2.029,2.029,0,0,1,2,2.38l-.378,2.157a2.039,2.039,0,0,1-2.009,1.688H197.3l-.427,2.528h9.272a1.068,1.068,0,0,1,1.052,1.252l-.541,3.1a2.547,2.547,0,0,1-2.509,2.109H191.511a2.688,2.688,0,0,1-2.647-3.154l3.227-18.347A2.887,2.887,0,0,1,194.934,195.635Z" transform="translate(-99.959 -186.463)"/>
  <path id="Path_6" data-name="Path 6" d="M225.646,203.047h-4.135a1.073,1.073,0,0,1-.923-.581,2.428,2.428,0,0,0-.625-.721,2.733,2.733,0,0,0-1.751-.526q-2.14,0-2.14,1.479,0,.738,1.051,1.089l4.551,1.439q5.058,1.557,5.058,5.992a7.662,7.662,0,0,1-3.015,6.439,12,12,0,0,1-7.529,2.314,11.49,11.49,0,0,1-7.216-2.062,7.375,7.375,0,0,1-2.515-3.463,1.693,1.693,0,0,1,1.625-2.217h4.572a1.653,1.653,0,0,1,1.395.758,2.593,2.593,0,0,0,2.373,1.032q2.217,0,2.334-1.439a1.137,1.137,0,0,0-.388-.914,3.308,3.308,0,0,0-1.245-.564l-3.969-1.168a8.158,8.158,0,0,1-3.734-2.042,5.267,5.267,0,0,1-1.284-3.793,7.827,7.827,0,0,1,2.956-6.381,11.2,11.2,0,0,1,7.315-2.412q4.668,0,7.2,2.159a7.4,7.4,0,0,1,1.994,2.622A2.12,2.12,0,0,1,225.646,203.047Z" transform="translate(-96.855 -186.522)"/>
  <path id="Path_7" data-name="Path 7" d="M190.652,198.8,187.4,217.291a2.7,2.7,0,0,1-2.66,2.233h-2.063a2.7,2.7,0,0,1-2.66-3.168l3.12-17.736a3.608,3.608,0,0,1,3.553-2.984h1.3A2.7,2.7,0,0,1,190.652,198.8Z" transform="translate(-101.524 -186.463)"/>
  <path id="Path_8" data-name="Path 8" d="M144.066,191.26a3.558,3.558,0,0,1-1.189,2.822,4.194,4.194,0,0,1-2.86,1.04,4.005,4.005,0,0,1-2.713-.929,3.12,3.12,0,0,1-1.077-2.488,3.555,3.555,0,0,1,1.189-2.823,4.194,4.194,0,0,1,2.86-1.04,4,4,0,0,1,2.712.929A3.122,3.122,0,0,1,144.066,191.26Z" transform="translate(-109.265 -187.842)"/>
  <path id="Path_9" data-name="Path 9" d="M191.754,191.26a3.558,3.558,0,0,1-1.189,2.822,4.194,4.194,0,0,1-2.861,1.04,4,4,0,0,1-2.712-.929,3.12,3.12,0,0,1-1.077-2.488,3.555,3.555,0,0,1,1.189-2.823,4.2,4.2,0,0,1,2.86-1.04,4,4,0,0,1,2.712.929A3.122,3.122,0,0,1,191.754,191.26Z" transform="translate(-100.827 -187.842)"/>
</svg>
