<svg xmlns="http://www.w3.org/2000/svg" width="18.968" height="14.455" viewBox="0 0 18.968 14.455">
  <path id="FontAwsome_sign-out-alt_" data-name="FontAwsome (sign-out-alt)" d="M18.706,71.846l-6.323,6.323a.9.9,0,0,1-1.543-.64V73.916H5.721a.9.9,0,0,1-.9-.9V69.4a.9.9,0,0,1,.9-.9H10.84V64.883a.905.905,0,0,1,1.543-.64l6.323,6.323A.911.911,0,0,1,18.706,71.846ZM7.226,77.981V76.475a.453.453,0,0,0-.452-.452H3.613a1.2,1.2,0,0,1-1.2-1.2V67.593a1.2,1.2,0,0,1,1.2-1.2H6.775a.453.453,0,0,0,.452-.452V64.431a.453.453,0,0,0-.452-.452H3.613A3.614,3.614,0,0,0,0,67.593v7.226a3.614,3.614,0,0,0,3.613,3.613H6.775A.453.453,0,0,0,7.226,77.981Z" transform="translate(0 -63.979)"/>
</svg>
