<svg xmlns="http://www.w3.org/2000/svg" width="16.968" height="19.392" viewBox="0 0 16.968 19.392">
  <path id="FontAwsome_user_" data-name="FontAwsome (user)" d="M11.878,11.514c-1.087,0-1.61.606-3.394.606s-2.3-.606-3.394-.606A5.092,5.092,0,0,0,0,16.6v.97a1.818,1.818,0,0,0,1.818,1.818H15.15a1.818,1.818,0,0,0,1.818-1.818V16.6A5.092,5.092,0,0,0,11.878,11.514Zm3.272,6.06H1.818V16.6A3.278,3.278,0,0,1,5.09,13.332a14.829,14.829,0,0,0,3.394.606,14.687,14.687,0,0,0,3.394-.606A3.278,3.278,0,0,1,15.15,16.6ZM8.484,10.908A5.454,5.454,0,1,0,3.03,5.454,5.455,5.455,0,0,0,8.484,10.908Zm0-9.09A3.636,3.636,0,1,1,4.848,5.454,3.642,3.642,0,0,1,8.484,1.818Z"/>
</svg>
