<svg xmlns="http://www.w3.org/2000/svg" width="18.968" height="16.861" viewBox="0 0 18.968 16.861">
  <path id="FontAwsome_bullhorn_" data-name="FontAwsome (bullhorn)" d="M18.968,7.9a2.1,2.1,0,0,0-1.054-1.815V1.054A1.064,1.064,0,0,0,16.861,0,1.051,1.051,0,0,0,16.2.231l-2.8,2.24A7.993,7.993,0,0,1,8.43,4.215H2.108A2.107,2.107,0,0,0,0,6.323V9.484a2.107,2.107,0,0,0,2.108,2.108h1.11a8,8,0,0,0-.072,1.054A8.342,8.342,0,0,0,3.987,16.3a1.033,1.033,0,0,0,.935.562H7.369A1.047,1.047,0,0,0,8.222,15.2a4.194,4.194,0,0,1-.861-2.55,3.985,3.985,0,0,1,.145-1.054H8.43A7.991,7.991,0,0,1,13.4,13.335l2.8,2.24a1.053,1.053,0,0,0,1.712-.823V9.719A2.1,2.1,0,0,0,18.968,7.9Zm-3.161,4.657-1.088-.871A10.1,10.1,0,0,0,8.43,9.484V6.323a10.1,10.1,0,0,0,6.288-2.206l1.088-.871Z"/>
</svg>
