<svg xmlns="http://www.w3.org/2000/svg" width="39" height="39" viewBox="0 0 39 39">
  <g id="Group_17" data-name="Group 17" transform="translate(-886 -612)">
    <circle id="Ellipse_4" data-name="Ellipse 4" cx="19.5" cy="19.5" r="19.5" transform="translate(886 612)" fill="#1ab1f4"/>
    <path id="FontAwsome_twitter_" data-name="FontAwsome (twitter)" d="M13.256,51.073c.009.131.009.263.009.394A8.557,8.557,0,0,1,4.65,60.082,8.557,8.557,0,0,1,0,58.723a6.264,6.264,0,0,0,.731.037,6.064,6.064,0,0,0,3.759-1.294,3.033,3.033,0,0,1-2.831-2.1,3.819,3.819,0,0,0,.572.047,3.2,3.2,0,0,0,.8-.1A3.029,3.029,0,0,1,.6,52.338V52.3a3.05,3.05,0,0,0,1.369.384,3.033,3.033,0,0,1-.937-4.05A8.607,8.607,0,0,0,7.275,51.8,3.418,3.418,0,0,1,7.2,51.11a3.031,3.031,0,0,1,5.241-2.072,5.962,5.962,0,0,0,1.922-.731,3.02,3.02,0,0,1-1.331,1.669,6.07,6.07,0,0,0,1.744-.469A6.509,6.509,0,0,1,13.256,51.073Z" transform="translate(898.613 577.418)" fill="#fff"/>
  </g>
</svg>
