<svg xmlns="http://www.w3.org/2000/svg" width="45" height="45" viewBox="0 0 45 45">
  <g id="Group_18" data-name="Group 18" transform="translate(-1805 -35)">
    <circle id="Ellipse_1" data-name="Ellipse 1" cx="22.5" cy="22.5" r="22.5" transform="translate(1805 35)" fill="#ededed"/>
    <path id="FontAwsome_user-alt_" data-name="FontAwsome (user-alt)" d="M10.827,12.18a6.09,6.09,0,1,0-6.09-6.09A6.092,6.092,0,0,0,10.827,12.18Zm5.413,1.353H13.91a7.362,7.362,0,0,1-6.166,0H5.413A5.413,5.413,0,0,0,0,18.947v.677a2.031,2.031,0,0,0,2.03,2.03H19.624a2.031,2.031,0,0,0,2.03-2.03v-.677A5.413,5.413,0,0,0,16.24,13.533Z" transform="translate(1817 45)" fill="#575757"/>
  </g>
</svg>
