<svg xmlns="http://www.w3.org/2000/svg" width="39" height="39" viewBox="0 0 39 39">
  <g id="Group_18" data-name="Group 18" transform="translate(-996 -612)">
    <circle id="Ellipse_45" data-name="Ellipse 45" cx="19.5" cy="19.5" r="19.5" transform="translate(996 612)" fill="#a83939"/>
    <path id="FontAwsome_weibo_" data-name="FontAwsome (weibo)" d="M14.017,37.046a1.116,1.116,0,0,0-1.288-1.436.578.578,0,0,1-.245-1.13A2.267,2.267,0,0,1,15.119,37.4.579.579,0,0,1,14.017,37.046ZM7.4,46.314c-3.661,0-7.4-1.77-7.4-4.694,0-1.526.964-3.286,2.628-4.949,3.434-3.434,7-3.475,5.979-.2-.138.451.424.2.424.207,2.738-1.157,4.839-.579,3.926,1.77-.127.324.038.375.286.451,4.674,1.457,1.2,7.411-5.844,7.411Zm4.949-5.039c-.186-1.918-2.7-3.237-5.627-2.952s-5.125,2.077-4.939,4,2.7,3.237,5.627,2.952S12.533,43.193,12.347,41.275Zm-.365-9.137a.675.675,0,0,0,.286,1.319,3.315,3.315,0,0,1,3.847,4.271.676.676,0,0,0,1.288.413,4.668,4.668,0,0,0-5.421-6Zm-2.7,10.711a3.147,3.147,0,0,1-3.757,1.595,2.171,2.171,0,0,1-1.388-3.089A3.2,3.2,0,0,1,7.694,39.8,2.174,2.174,0,0,1,9.278,42.849ZM6.306,41.816A1.113,1.113,0,0,0,5,42.26a.778.778,0,0,0,.3,1.171,1.113,1.113,0,0,0,1.347-.444A.78.78,0,0,0,6.306,41.816Zm1.123-.461a.435.435,0,0,0-.492.186.3.3,0,0,0,.127.444.423.423,0,0,0,.5-.186A.3.3,0,0,0,7.429,41.354Z" transform="translate(1007.367 592.327)" fill="#fff"/>
  </g>
</svg>
